Coordinates
version=1
nRows=29
nColumns=24
inDegrees=yes

Units are S.I. units (second, meters, Newtons, ...)
Angles are in degrees.

endheader
time	pelvis_tilt	pelvis_list	pelvis_rotation	pelvis_tx	pelvis_ty	pelvis_tz	hip_flexion_r	hip_adduction_r	hip_rotation_r	knee_angle_r	ankle_angle_r	subtalar_angle_r	mtp_angle_r	hip_flexion_l	hip_adduction_l	hip_rotation_l	knee_angle_l	ankle_angle_l	subtalar_angle_l	mtp_angle_l	lumbar_extension	lumbar_bending	lumbar_rotation
      1.56000000	     14.97891479	     -2.19531429	     -0.98495388	     -0.08688737	      0.94175797	      0.29961368	    -23.83101154	      5.88329463	     -0.18736592	     -4.17391340	     20.74097409	      3.80070905	     16.55105177	     14.54562515	     -3.15925489	     -9.00153156	    -40.53754792	     20.07475836	      1.26057899	     42.99788095	    -31.33605868	      4.82499940	      5.59440250
      1.56500000	     14.98348534	     -2.13240674	     -1.17694233	     -0.08073699	      0.94112514	      0.29991991	    -24.29632695	      5.73967317	     -0.06253959	     -4.09865686	     21.00551436	      3.93599396	     16.38337117	     14.36067085	     -3.00137984	     -9.39501016	    -38.26556135	     19.43551835	      1.47061501	     42.89840653	    -31.34526003	      4.64627307	      5.81310314
      1.57000000	     15.04506769	     -2.03959795	     -1.45786256	     -0.07460736	      0.94050885	      0.30042052	    -24.83588764	      5.53094615	      0.24598180	     -4.00620000	     21.25045193	      3.92477194	     16.21252111	     14.04600459	     -2.82666276	     -9.91499290	    -35.89602037	     18.76255239	      1.66823710	     42.81803731	    -31.43605830	      4.37437763	      6.05011164
      1.57500000	     15.12483029	     -2.00073578	     -1.77603438	     -0.06857057	      0.93993320	      0.30090605	    -25.34624711	      5.34941961	      0.50418905	     -4.00329017	     21.49415626	      4.06580913	     16.03594112	     13.68491342	     -2.69529024	    -10.41439744	    -33.48464059	     17.99604200	      1.76151843	     42.64585549	    -31.56539384	      4.13114537	      6.32728829
      1.58000000	     15.15401517	     -1.94645676	     -1.98406813	     -0.06244094	      0.93920666	      0.30127198	    -25.85194641	      5.20266625	      0.68796177	     -3.90659435	     21.73295405	      4.16162344	     15.84480274	     13.36285175	     -2.51160951	    -10.80786721	    -31.04715435	     17.12397190	      1.94716549	     42.46934667	    -31.62087871	      3.93981309	      6.49471606
      1.58500000	     15.26167502	     -1.86793248	     -2.14488023	     -0.05623400	      0.93854695	      0.30149195	    -26.43181470	      5.03401837	      0.77557833	     -3.82294353	     21.95935840	      4.27802090	     15.69375565	     12.94024090	     -2.28265209	    -11.16795148	    -28.60011181	     16.17263789	      2.17613984	     42.32379496	    -31.73576961	      3.73741248	      6.64804382
      1.59000000	     15.32637039	     -1.78129214	     -2.28118814	     -0.04992540	      0.93781301	      0.30158459	    -26.97630708	      4.85107138	      0.75318778	     -3.73501963	     22.14985829	      4.53890638	     15.63268456	     12.57558150	     -2.03301518	    -11.49994789	    -26.21656354	     15.21884161	      2.37173549	     42.24835038	    -31.80747630	      3.55873493	      6.76514937
      1.59500000	     15.32034111	     -1.70759047	     -2.34640307	     -0.04346494	      0.93693480	      0.30158385	    -27.43360976	      4.72163252	      0.62555189	     -3.70159302	     22.41472973	      4.77561192	     15.54386060	     12.22353803	     -1.76114997	    -11.68797276	    -23.73733384	     14.26149918	      2.63055920	     42.25683813	    -31.78445836	      3.44583828	      6.77852171
      1.60000000	     15.38047696	     -1.62726585	     -2.36418941	     -0.03706966	      0.93609363	      0.30146732	    -27.95855708	      4.59253848	      0.47807082	     -3.66425885	     22.70539799	      5.08280126	     15.41239603	     11.79829446	     -1.45722147	    -11.81664944	    -21.29168092	     13.24099662	      2.74372774	     42.37762427	    -31.83156821	      3.33598344	      6.77912246
      1.60500000	     15.20098446	     -1.66338751	     -2.50286884	     -0.03072546	      0.93500279	      0.30163026	    -28.15997566	      4.55427636	      0.59133131	     -3.74849109	     22.94914718	      5.22708570	     15.39781655	     11.68106906	     -1.35272453	    -12.10339679	    -19.05931913	     12.32475197	      2.99368306	     42.42761845	    -31.63987952	      3.29526378	      6.90290435
      1.61000000	     15.24229393	     -1.68667709	     -2.55613482	     -0.02442812	      0.93407635	      0.30160530	    -28.64520343	      4.52642320	      0.55358344	     -3.74634125	     23.14142123	      5.31747172	     15.30214511	     11.30499600	     -1.18401520	    -12.26444808	    -16.80975780	     11.45690243	      3.22305462	     42.82890974	    -31.68915729	      3.26480905	      6.94456114
      1.61500000	     15.06142615	     -1.73476089	     -2.71361476	     -0.01814354	      0.93292693	      0.30167830	    -28.82022916	      4.48040368	      0.70250893	     -3.87184236	     23.38452902	      5.41748400	     15.31846378	     11.16761608	     -1.07121460	    -12.50224331	    -14.69574236	     10.69132406	      3.36361933	     42.90069984	    -31.51286692	      3.23445658	      7.13726661
      1.62000000	     15.15844866	     -1.76491637	     -2.81931096	     -0.01182003	      0.93206942	      0.30168529	    -29.34190243	      4.42332105	      0.61923570	     -3.91319199	     23.56114551	      5.74823792	     15.37856788	     10.71239196	     -0.90978046	    -12.67966450	    -12.63955093	      9.98680954	      3.60360757	     43.15156547	    -31.63066075	      3.17636317	      7.33578571
      1.62500000	     15.00366384	     -1.83941123	     -2.92500642	     -0.00552178	      0.93087442	      0.30173223	    -29.54735114	      4.43086570	      0.69207600	     -4.03803022	     23.73610371	      5.95999678	     15.49722584	     10.62037799	     -0.83025024	    -12.90335702	    -10.89558266	      9.47230904	      3.92947632	     43.22885847	    -31.47753449	      3.17874735	      7.46091397
      1.63000000	     14.96040116	     -1.95381264	     -2.93252470	      0.00090500	      0.92976936	      0.30167642	    -29.90393681	      4.51574139	      0.61072718	     -4.12659440	     23.85689787	      6.20531543	     15.78634405	     10.44085019	     -0.78914149	    -13.16726304	     -9.32094205	      9.07917476	      4.57295631	     43.39536403	    -31.44284114	      3.25855931	      7.51987294
      1.63500000	     14.73661740	     -2.05609307	     -2.94486253	      0.00728613	      0.92846361	      0.30159610	    -30.01744609	      4.59215291	      0.60396369	     -4.31340504	     24.06003880	      6.30791293	     15.94591350	     10.53278563	     -0.74335002	    -13.40205394	     -8.03981686	      8.85521218	      5.09623992	     43.44297363	    -31.20954936	      3.33263751	      7.64181916
      1.64000000	     14.56620499	     -2.17393320	     -2.91689643	      0.01380777	      0.92720727	      0.30151917	    -30.18042749	      4.70162130	      0.46141922	     -4.53895393	     24.23603580	      6.53847711	     16.10529493	     10.59993011	     -0.73189809	    -13.68648594	     -6.99415442	      8.87173568	      5.98189917	     43.44176510	    -31.02485601	      3.44296432	      7.67082605
      1.64500000	     14.46030651	     -2.28130395	     -2.90036036	      0.02031115	      0.92601987	      0.30144201	    -30.40315221	      4.78365739	      0.31901685	     -4.78438694	     24.33831484	      6.82266189	     16.25804622	     10.62388524	     -0.71548333	    -13.98757255	     -6.17321488	      9.07706450	      6.96630201	     43.32298154	    -30.91203996	      3.52813588	      7.66423925
      1.65000000	     14.27337749	     -2.41672050	     -2.90031943	      0.02688167	      0.92474690	      0.30142114	    -30.52400705	      4.88919987	      0.36343326	     -5.05418063	     24.46766608	      7.00737152	     16.47590869	     10.83655489	     -0.77694923	    -14.49638597	     -5.73706445	      9.58082671	      8.21359983	     43.22283572	    -30.71476842	      3.63599309	      7.70418395
      1.65500000	     14.09012192	     -2.53120697	     -2.91148035	      0.03353452	      0.92344364	      0.30138639	    -30.68069426	      4.95804858	      0.35821407	     -5.26727974	     24.65336937	      7.24256352	     16.89995121	     11.09442411	     -0.83330002	    -14.97301115	     -5.57229632	     10.11093249	      9.42787578	     43.00191467	    -30.50360376	      3.71403528	      7.77253246
      1.66000000	     13.85930886	     -2.67953373	     -2.93432667	      0.04019687	      0.92216725	      0.30137713	    -30.69453809	      5.05450836	      0.29940066	     -5.66180546	     24.74521838	      7.53837380	     17.27588983	     11.43590269	     -0.94334674	    -15.34463177	     -5.63396779	     10.60858867	     10.38407907	     42.85608917	    -30.24852909	      3.83433468	      7.83885159
      1.66500000	     13.82223310	     -2.80553146	     -2.96255342	      0.04689446	      0.92113486	      0.30154536	    -31.00638519	      5.12777918	      0.43597410	     -5.87391713	     24.56051625	      7.41171517	     19.64291626	     11.57487109	     -1.05454324	    -15.59013694	     -5.91760069	     11.28519484	     11.38024092	     40.85054906	    -30.18778948	      3.88879945	      7.91947849
      1.67000000	     13.74339233	     -2.89724474	     -3.00875830	      0.05365829	      0.92011756	      0.30163846	    -31.15510983	      5.13670126	      0.40560755	     -6.33879112	     24.73874395	      7.80299339	     19.82923621	     11.78028516	     -1.11980744	    -15.65739624	     -6.35405581	     11.69155261	     11.67353925	     40.84409523	    -30.09210086	      3.90065569	      7.99819219
      1.67500000	     13.68121267	     -2.90233735	     -3.06966931	      0.06066741	      0.91912525	      0.30181112	    -31.36610326	      5.04921572	      0.34301632	     -6.73443455	     24.89403684	      8.14575950	     20.19427733	     11.96181565	     -1.11164457	    -15.64030535	     -6.94397641	     12.05086166	     11.81912053	     40.75851775	    -29.99237913	      3.82054099	      7.99281229
      1.68000000	     13.66907410	     -2.84647552	     -3.11137391	      0.06767862	      0.91830660	      0.30182584	    -31.59474938	      4.89819669	      0.20732160	     -7.16825015	     24.75096369	      8.39063655	     22.27970172	     12.05905589	     -1.01249497	    -15.37022290	     -7.61528241	     12.38148937	     11.63104714	     39.75250471	    -29.93490557	      3.70382275	      7.90617109
      1.68500000	     13.63407051	     -2.79692731	     -3.23696202	      0.07482895	      0.91750385	      0.30191558	    -31.81230346	      4.69865272	      0.21115680	     -7.59932178	     24.85213628	      8.76916879	     22.48159939	     12.22299373	     -0.96645325	    -15.34125392	     -8.52475096	     12.73509804	     11.67670746	     39.73140946	    -29.83956528	      3.54831195	      8.00679893
      1.69000000	     13.61659924	     -2.67383041	     -3.27379511	      0.08206523	      0.91669101	      0.30168999	    -31.98397545	      4.44375719	     -0.03898346	     -8.16351010	     24.80425348	      9.28211333	     23.66378619	     12.34079631	     -0.78222468	    -15.04887227	     -9.44959636	     13.00770922	     11.39963004	     38.94847589	    -29.74867080	      3.38401142	      7.90873239
      1.69500000	     13.60602345	     -2.54336204	     -3.41481900	      0.08938555	      0.91588641	      0.30169013	    -32.17501189	      4.13057309	     -0.08312975	     -8.71491832	     24.86419790	      9.77147542	     23.84876808	     12.48912289	     -0.64157546	    -15.00721977	    -10.59089217	     13.34503707	     11.24912482	     38.90147933	    -29.66506584	      3.16138413	      7.84665120
      1.70000000	     13.63434181	     -2.39078592	     -3.43836961	      0.09679237	      0.91512424	      0.30154123	    -32.39609520	      3.85645656	     -0.28845375	     -9.28919534	     24.80247795	     10.27395021	     24.66863021	     12.50744420	     -0.40190336	    -14.54568152	    -11.59037792	     13.52170287	     10.67730645	     38.54057203	    -29.60637576	      2.96188496	      7.73464032
